PathFileType	4	(X/Y/Z)	C:\Users\Basilio\Documents\Thesis Gigler\squatting_fais\c3dfiles\075\SLS_back_pre1\markers_experimental.trc
DataRate	CameraRate	NumFrames	NumMarkers	Units	OrigDataRate	OrigDataStartFrame	OrigNumFrames
200.000000	200.000000	4	61	mm	200.000000	848	1357
Frame#	Time	FHD			LBHD			C7			T10			CLAV			LSHO			LUUPA			LMUPA			LDUPA			LLEP			LMEP			LRAD			LUL			LRFIN			RSHO			RUPA1			RMUPA			RDUPA			RLEP			RMEP			RRAD			RUL			RUFIN			LASI			RASI			USACR			LSACR			RSACR			LTHI1			LTHI2			LTHI3			LTHI4			LLFC			LMFC			LTIB1			LTIB2			LTIB3			LTIB4			LLMAL			LMMAL			LHEE			LMT1			LMT2			LMT5			RTHI			RTHI2			RTHI3			RTHI4			RLFC			RMFC			RTIB1			RTIB2			RTIB3			RTIB4			RLMAL			RMMAL			RHEE			RMT1			RMT2			RMT5			RBHD			
		X1	Y1	Z1	X2	Y2	Z2	X3	Y3	Z3	X4	Y4	Z4	X5	Y5	Z5	X6	Y6	Z6	X7	Y7	Z7	X8	Y8	Z8	X9	Y9	Z9	X10	Y10	Z10	X11	Y11	Z11	X12	Y12	Z12	X13	Y13	Z13	X14	Y14	Z14	X15	Y15	Z15	X16	Y16	Z16	X17	Y17	Z17	X18	Y18	Z18	X19	Y19	Z19	X20	Y20	Z20	X21	Y21	Z21	X22	Y22	Z22	X23	Y23	Z23	X24	Y24	Z24	X25	Y25	Z25	X26	Y26	Z26	X27	Y27	Z27	X28	Y28	Z28	X29	Y29	Z29	X30	Y30	Z30	X31	Y31	Z31	X32	Y32	Z32	X33	Y33	Z33	X34	Y34	Z34	X35	Y35	Z35	X36	Y36	Z36	X37	Y37	Z37	X38	Y38	Z38	X39	Y39	Z39	X40	Y40	Z40	X41	Y41	Z41	X42	Y42	Z42	X43	Y43	Z43	X44	Y44	Z44	X45	Y45	Z45	X46	Y46	Z46	X47	Y47	Z47	X48	Y48	Z48	X49	Y49	Z49	X50	Y50	Z50	X51	Y51	Z51	X52	Y52	Z52	X53	Y53	Z53	X54	Y54	Z54	X55	Y55	Z55	X56	Y56	Z56	X57	Y57	Z57	X58	Y58	Z58	X59	Y59	Z59	X60	Y60	Z60	X61	Y61	Z61	

849	4.24	-211.2063751220704	1702.315063476563	-754.2203979492189	-358.8303833007813	1582.902099609375	-818.9836425781252	-392.522186279297	1474.765747070313	-763.8553466796876	-457.6723022460939	1163.695922851563	-774.682800292969	-256.2481079101563	1404.604736328125	-762.8802490234376	-285.0752258300782	1462.278686523438	-893.130310058594	-138.2453918457032	1401.636840820313	-998.8914184570315	-111.6886749267578	1425.604248046875	-964.696716308594	-69.08145904541017	1400.701782226563	-1000.937194824219	16.77975082397461	1397.537109375	-990.2290649414065	4.598947525024415	1320.478393554688	-950.6028442382815	nan	nan	nan	232.982894897461	1440.210327148438	-852.4083251953127	227.321517944336	1465.9345703125	-747.2742309570314	-295.6607971191407	1439.45654296875	-624.6171264648439	-166.0972290039063	1376.41552734375	-502.269989013672	-131.0159454345703	1398.279174804688	-528.6777954101564	-97.33295440673831	1371.649169921875	-484.7994384765626	-25.01982116699219	1373.216430664063	-483.1342773437501	-9.618324279785158	1299.478881835938	-509.8798828125001	164.1510314941407	1435.971069335938	-681.1953125000001	193.5542297363282	1438.22607421875	-610.0869140625001	232.103744506836	1482.841918945313	-710.9003295898439	-331.9246215820313	984.3191528320315	-919.7725830078127	-324.6232299804688	964.5946044921877	-668.6251831054689	-474.8234252929689	1063.110229492188	-785.867126464844	-486.4239196777345	1035.543334960938	-815.9051513671877	-484.5215148925782	1031.140014648438	-758.2541503906251	-309.2119750976563	791.526306152344	-1023.504943847656	-244.6751098632813	737.6668090820314	-1034.877685546875	-208.5594635009766	753.8366699218751	-1005.3212890625	-247.1449584960938	677.1742553710939	-1044.873046875	-227.249008178711	589.1009521484376	-1045.401611328125	-205.5313262939454	548.6843872070314	-919.067321777344	-272.1393432617188	469.2485351562501	-1012.873229980469	-341.0593261718751	501.6305541992189	-1056.705078125	-324.5201110839844	464.077850341797	-1039.562133789063	-393.1546630859376	426.8773498535157	-1006.839050292969	-555.4569091796876	426.5444335937501	-1016.204406738281	-520.5391845703126	404.9168090820314	-937.3479003906252	-601.6558837890626	462.3215942382814	-967.0474243164065	-536.6209716796876	263.4157104492188	-946.5610351562502	-540.7246093750001	259.4535217285157	-995.2014160156252	-583.2018432617189	286.8889465332032	-1039.333251953125	-379.5886840820313	764.3347167968751	-617.2370605468751	-330.0492248535157	720.5716552734376	-621.8109741210939	-300.1918029785157	733.2330322265626	-630.2495727539064	-339.8615112304688	637.2119140625001	-637.2525634765626	-322.8597412109376	490.1849670410157	-679.8110351562501	-286.8593750000001	499.671600341797	-803.3408203125002	-279.3448486328126	352.4117431640626	-764.5156250000001	-332.3637084960938	271.8392944335938	-714.4701538085939	-297.4118652343751	268.5643615722657	-748.6296997070314	-314.4645385742188	230.4760742187501	-789.5697021484377	-391.588348388672	113.9009857177735	-764.5775146484376	-365.7102661132813	143.7843627929688	-843.491149902344	-449.6097106933595	99.77040863037112	-823.2241210937502	-247.6883239746094	55.59593200683595	-836.958679199219	-246.5668945312501	54.52720642089845	-794.682312011719	-283.9648742675782	34.6523666381836	-742.1077270507814	-317.5345458984376	1622.32080078125	-666.6426391601564	
850	4.245	-212.0125274658204	1703.6640625	-754.1254882812501	-359.7320251464844	1584.342041015625	-818.981872558594	-393.2459716796876	1475.908325195313	-763.8302001953126	-457.5879821777345	1164.498413085938	-774.5704345703127	-256.7619934082032	1406.248413085938	-762.8894653320314	-285.9221496582032	1463.641479492188	-893.021911621094	-138.9923553466797	1403.348266601563	-998.919616699219	-111.6685180664063	1426.416015625	-964.6335449218752	-69.87966156005861	1402.500854492188	-1000.941040039063	16.12313842773438	1399.3994140625	-990.3274536132815	3.884790420532227	1322.395874023438	-950.7036743164065	nan	nan	nan	232.2514953613282	1442.6728515625	-852.5767211914065	226.5602264404297	1468.404296875	-747.3774414062501	-296.1637573242188	1440.707153320313	-624.4324951171876	-166.4374084472657	1378.22998046875	-501.9602355957032	-131.642074584961	1400.01953125	-528.6332397460939	-97.75091552734378	1373.548095703125	-484.7680664062501	-25.39193153381348	1375.205688476563	-483.0653381347657	-9.79507350921631	1301.573486328125	-509.7840270996095	163.5431060791016	1438.427856445313	-681.2359619140626	192.9146423339844	1440.786743164063	-610.1871948242189	231.3288574218751	1485.2900390625	-711.1815185546876	-331.4852294921876	985.7004394531252	-919.772155761719	-323.9796447753907	965.8784179687502	-668.6333007812501	-474.2724914550782	1063.967651367188	-785.7449340820315	-485.9045715332032	1036.35888671875	-815.856384277344	-483.858367919922	1032.068481445313	-758.2054443359376	-308.3615722656251	792.882507324219	-1023.772583007813	-243.6767272949219	738.9200439453126	-1034.9833984375	-207.3855438232422	755.2095947265626	-1005.385192871094	-245.2097167968751	678.6026000976564	-1044.952392578125	-226.2906341552735	590.8250732421876	-1045.787353515625	-203.8103942871094	550.0984497070314	-919.3431396484377	-270.6903076171876	470.7753295898439	-1012.977294921875	-338.8419494628907	502.8199768066407	-1056.434936523438	-323.1773071289063	465.2687377929689	-1039.718017578125	-391.9995117187501	428.0075988769532	-1007.534973144531	-553.9510498046876	427.5089721679689	-1016.059997558594	-518.8178710937501	405.9960327148439	-937.2576293945315	-600.3853149414064	463.3842163085939	-967.0130004882815	-534.9342651367189	264.4913330078126	-946.201843261719	-538.7666625976564	260.5180053710938	-994.7331542968752	-581.4653930664064	287.8048095703126	-1039.00927734375	-379.3961181640626	765.2253417968751	-617.4225463867189	-330.1553039550782	721.1218872070314	-621.8989257812501	-300.1118469238282	733.6692504882814	-630.4622192382814	-340.3526306152344	637.7899169921876	-637.4754638671876	-324.2119445800782	490.6255798339845	-680.0845947265626	-289.4616699218751	500.1105041503907	-803.1080322265627	-280.3286743164063	352.8650207519532	-764.5476684570314	-333.0441894531251	272.1886901855469	-714.4498901367189	-298.1539916992188	269.1094055175782	-748.6245727539064	-314.8978271484376	230.7992706298829	-789.5856933593752	-391.6271057128907	113.9359283447266	-764.5621337890626	-365.8682861328126	143.7701721191407	-843.5088500976565	-449.634979248047	99.76337432861331	-823.214050292969	-247.6587982177735	55.59517288208009	-836.9299926757815	-246.5477142333985	54.50874328613283	-794.6819458007815	-283.9565429687501	34.62323379516602	-742.1129150390626	-318.1581115722657	1623.884155273438	-667.0599365234376	
851	4.25	-214.1883544921876	1705.048461914063	-755.2711791992189	-360.4759826660157	1585.712890625	-818.7327880859377	-393.9937133789064	1477.011596679688	-763.6776123046876	-457.398651123047	1165.401733398438	-774.3762207031252	-257.3280334472657	1407.479370117188	-762.7272949218751	-286.7105407714844	1465.095581054688	-893.1787719726565	-139.8895111083985	1405.640991210938	-999.2100830078127	-112.20751953125	1428.164306640625	-964.6409301757815	-70.9636688232422	1405.072509765625	-1000.825256347656	15.57091522216797	1401.273315429688	-990.4613037109377	3.628928422927857	1324.320190429688	-950.6318359375002	nan	nan	nan	230.925277709961	1445.075561523438	-852.8416748046877	225.7272949218751	1470.762451171875	-747.5648803710939	-296.8980712890626	1442.143310546875	-624.5854492187501	-166.9712219238282	1379.595947265625	-502.2342529296876	-132.1239929199219	1401.679565429688	-528.6523437500001	-98.17254638671878	1375.318481445313	-484.7753295898439	-25.83847808837891	1377.2265625	-483.1239013671876	-10.12974834442139	1303.492309570313	-509.8284606933595	162.3132629394532	1440.4921875	-681.4443359375001	192.2125091552735	1443.033203125	-610.3910522460939	231.4874725341797	1487.910522460938	-711.2009887695314	-330.8262023925782	987.0908203125002	-919.728210449219	-323.2733154296876	966.8533935546877	-668.6155395507814	-473.8051147460939	1064.917358398438	-785.6287841796877	-485.430389404297	1037.170166015625	-815.7268066406252	-483.4936828613282	1032.802612304688	-758.2166137695314	-307.3216247558594	794.2122192382815	-1023.889831542969	-242.3023529052735	740.6238403320314	-1035.424194335938	-206.2041473388672	757.0269165039064	-1005.919067382813	-244.1279907226563	679.8816528320314	-1045.144897460938	-225.0920410156251	592.4131469726564	-1045.953369140625	-202.4927215576172	551.6628417968751	-919.4963989257815	-269.5220336914063	472.2162475585939	-1013.60791015625	-338.2246704101563	504.1081848144532	-1056.7724609375	-321.5529479980469	466.8232727050782	-1039.803344726563	-389.942840576172	429.3944091796876	-1007.235229492188	-552.3217773437501	428.575653076172	-1015.924499511719	-517.1947021484376	407.1903686523439	-937.1704711914065	-598.4051513671876	464.2361145019532	-966.710388183594	-533.2294311523439	265.5844726562501	-945.935241699219	-536.9270629882814	261.5603942871094	-994.4733886718752	-579.6801147460939	288.7741088867188	-1038.8359375	-379.1723327636719	766.0971069335939	-617.4995117187501	-330.1581115722657	721.7353515625001	-622.0734863281251	-300.0429992675782	734.1580810546876	-630.6855468750001	-340.9958496093751	638.2957763671876	-637.7742919921876	-325.4612121582032	491.1543884277345	-680.2749633789064	-289.7091064453126	500.6011962890626	-803.943542480469	-281.2431640625001	353.3448486328126	-764.7256469726564	-333.8002319335938	272.6040649414063	-714.5123901367189	-298.6003112792969	269.3328552246094	-748.5455322265626	-315.2901916503907	231.0006103515626	-789.4765625000002	-391.6968383789064	113.9527282714844	-764.5916748046876	-365.8898925781251	143.759521484375	-843.4365234375002	-449.6642150878907	99.76651000976565	-823.2263793945315	-247.6524047851563	55.59574508666994	-836.9956665039065	-246.5530242919922	54.53962326049806	-794.7073974609377	-283.9478454589844	34.6394271850586	-742.1280517578126	-319.1051940917969	1625.060668945313	-666.6618041992189	
852	4.255	-214.0339660644532	1706.395263671875	-754.4956054687501	-361.2537841796876	1586.779418945313	-818.7315673828127	-394.6521911621095	1477.949829101563	-763.6129760742189	-457.1024169921876	1166.265991210938	-774.289978027344	-257.9201965332032	1409.134643554688	-762.9284057617189	-287.5898132324219	1466.427856445313	-893.115417480469	-140.5294189453125	1406.757446289063	-999.1606445312502	-113.2294921875	1429.755249023438	-964.7185058593752	-71.31847381591798	1406.10205078125	-1001.140441894531	14.79067134857178	1403.203369140625	-990.5088500976565	2.974339723587037	1326.092407226563	-950.8401489257815	nan	nan	nan	230.9823455810547	1447.36181640625	-852.728698730469	224.9682922363282	1473.103271484375	-747.7392578125001	-297.5026245117188	1443.2880859375	-624.5446166992189	-167.3497009277344	1381.253662109375	-502.0268554687501	-132.6266174316407	1403.419677734375	-528.7422485351564	-98.59592437744143	1377.163452148438	-484.8001708984376	-26.41402053833009	1378.988037109375	-483.2244262695314	-10.42997074127197	1305.390869140625	-510.0487670898439	161.6341247558594	1442.76220703125	-681.5246582031251	191.6259460449219	1445.621826171875	-610.4468994140626	230.6412048339844	1490.141845703125	-711.3632202148439	-330.2843933105469	988.2139282226565	-919.7968750000002	-322.6323242187501	967.9285278320315	-668.8439331054689	-473.4050292968751	1065.655639648438	-785.566345214844	-484.9920959472657	1037.959228515625	-815.7287597656252	-482.9869689941407	1033.561889648438	-758.1687622070314	-306.4218750000001	795.3940429687502	-1024.019897460938	-241.7667694091797	741.9954223632814	-1035.412719726563	-205.5030975341797	758.2765502929689	-1005.808898925781	-243.8314514160157	681.4272460937501	-1045.501342773438	-223.4441833496094	593.5494995117189	-1046.021362304688	-200.9908142089844	553.1520996093751	-919.6582031250002	-267.5059204101563	473.4945068359376	-1013.091735839844	-336.8723754882813	505.3228759765626	-1056.720336914063	-320.1420288085938	468.1700439453126	-1039.885009765625	-388.4118957519532	430.516571044922	-1007.354797363281	-551.3444213867189	429.7632141113282	-1015.901489257813	-515.4257812500001	408.2406311035157	-937.0527343750002	-597.1417236328126	465.3952941894532	-966.6680297851565	-531.0495605468751	266.7624206542969	-945.4307861328127	-535.3746948242189	262.6873474121094	-994.2947998046877	-577.9867553710939	289.7700195312501	-1038.4306640625	-378.9638671875001	766.8372192382814	-617.5659790039064	-330.2442016601563	722.1203613281251	-622.2037353515626	-300.1108703613282	734.3303833007814	-630.7972412109376	-341.5458984375001	638.8731079101564	-637.9874267578126	-326.9117736816407	491.4786071777345	-680.5796508789064	-290.9902343750001	500.7224121093751	-804.2476806640627	-281.8332824707032	353.7329711914063	-764.4956665039064	-334.4823608398438	272.9204711914063	-714.5891113281251	-299.2100524902344	269.6873779296876	-748.4828491210939	-315.6702880859376	231.1627502441407	-789.4791259765627	-391.7640380859376	113.9780883789063	-764.6023559570314	-365.9696655273438	143.741195678711	-843.4272460937502	-449.6268310546876	99.72995758056643	-823.239685058594	-247.7467651367188	55.42247009277345	-836.7932739257815	-246.5401916503907	54.48661422729494	-794.6790161132815	-283.9893798828126	34.63769531250001	-742.1074829101564	-319.9519958496094	1626.4765625	-666.5376586914064	
